<?xml version="1.0" encoding="utf-8"?>
<!-- Generator: Adobe Illustrator 18.1.1, SVG Export Plug-In . SVG Version: 6.00 Build 0)  -->
<svg version="1.1" id="Layer_1" xmlns="http://www.w3.org/2000/svg" xmlns:xlink="http://www.w3.org/1999/xlink" x="0px" y="0px"
	 viewBox="0 0 231.5 37.5" enable-background="new 0 0 231.5 37.5" xml:space="preserve">
<g>
	<polygon fill="#00CC99" points="219.8,9.5 219.7,9.5 219.7,9.2 213.7,9.2 213.7,15.2 219.8,15.2 219.8,9.5 	"/>
	<polygon fill="#FF0000" points="219.7,9.5 219.8,9.5 225.7,9.5 225.7,3.5 219.7,3.5 219.7,9.2 219.7,9.5 	"/>
	<polygon fill="#FFCC00" points="229.1,12.6 223,12.6 223,18.8 229.1,18.8 229.1,12.6 	"/>
	<path fill="#0152A0" d="M205.6,13c-0.8-0.6-1.9-1-3.3-1.2c-1.4-0.2-3.6-0.3-6.4-0.3c-3.7,0-6.3,0.2-7.8,0.6
		c-1.5,0.4-2.6,1.2-3.2,2.5c-0.3,0.6-0.5,1.2-0.6,2c-0.1,0.7-0.2,1.7-0.2,3.1c0,2.4,0.1,4.1,0.4,5.2c0.2,1,0.8,1.8,1.5,2.5
		c0.8,0.6,1.9,1.1,3.2,1.3c1.3,0.2,3.6,0.3,6.7,0.3c3.5,0,6-0.2,7.6-0.5c1.8-0.4,3-1.4,3.6-3c0.2-0.6,0.4-1.3,0.5-2.1
		c0-0.8,0.1-2,0.1-3.5c0-2.1-0.1-3.6-0.4-4.6S206.4,13.6,205.6,13L205.6,13z M201.4,20.2c0,1.7-0.3,2.9-0.9,3.4
		c-0.6,0.5-2.2,0.7-4.6,0.7c-2.1,0-3.5-0.2-4.3-0.5c-0.5-0.2-0.9-0.6-1.1-1.1c-0.1-0.4-0.2-1.2-0.2-2.3c0-1.1,0.1-1.9,0.3-2.5
		c0.2-0.5,0.6-1,1.1-1.2c0.7-0.3,2.1-0.4,4.2-0.4c1.9,0,3.3,0.1,4.1,0.5c0.5,0.2,0.9,0.6,1.1,1.1C201.3,18.3,201.4,19.1,201.4,20.2
		L201.4,20.2z"/>
	<path fill="#0152A0" d="M181.3,16.1c-0.2-0.9-0.7-1.8-1.4-2.5c-0.7-0.7-1.6-1.3-2.7-1.6c-1.1-0.3-2.5-0.5-4.2-0.5
		c-2.1,0-3.7,0.3-4.8,0.8c-1.1,0.5-1.9,1.4-2.5,2.6c-0.6-1.2-1.6-2.1-2.8-2.6c-1.2-0.5-2.8-0.8-4.8-0.8c-3.6,0-5.9,1-6.8,2.9h-0.3
		v-2.5h-5.9v16.8h6.3v-6.9c0-1.4,0-2.4,0.2-3c0.1-0.6,0.4-1.1,0.7-1.5c0.6-0.6,1.9-1,3.8-1c1.7,0,2.9,0.3,3.5,0.9
		c0.2,0.3,0.4,0.7,0.5,1.1c0,0.4,0.1,1.2,0.1,2.6v7.8h6.3v-6.9c0-1.3,0-2.3,0.2-3c0.1-0.6,0.3-1.1,0.7-1.5c0.6-0.7,1.9-1,3.7-1
		c1.7,0,2.9,0.3,3.5,0.9c0.3,0.3,0.5,0.7,0.5,1.1c0.1,0.5,0.1,1.3,0.1,2.6v7.8h6.3v-7.8C181.7,18.6,181.6,17.1,181.3,16.1
		L181.3,16.1z"/>
	<path fill="#0152A0" d="M140.4,13c-0.8-0.6-1.9-1-3.3-1.2c-1.4-0.2-3.6-0.3-6.4-0.3c-3.7,0-6.3,0.2-7.8,0.6
		c-1.5,0.4-2.6,1.2-3.2,2.5c-0.3,0.6-0.5,1.2-0.6,2c-0.1,0.7-0.2,1.7-0.2,3.1c0,2.4,0.1,4.1,0.4,5.2c0.2,1,0.8,1.8,1.5,2.5
		c0.8,0.6,1.9,1.1,3.2,1.3c1.3,0.2,3.6,0.3,6.7,0.3c3.5,0,6-0.2,7.6-0.5c1.8-0.4,3-1.4,3.6-3c0.2-0.6,0.4-1.3,0.5-2.1
		c0-0.8,0.1-2,0.1-3.5c0-2.1-0.1-3.6-0.4-4.6S141.3,13.6,140.4,13L140.4,13z M125.4,17.9c0.2-0.5,0.6-1,1.1-1.2
		c0.7-0.3,2.1-0.4,4.2-0.4c1.9,0,3.3,0.1,4.1,0.5c0.5,0.2,0.9,0.6,1.1,1.1c0.2,0.5,0.3,1.3,0.3,2.4c0,1.7-0.3,2.9-0.9,3.4
		c-0.6,0.5-2.2,0.7-4.6,0.7c-2.1,0-3.5-0.2-4.3-0.5c-0.5-0.2-0.9-0.6-1.1-1.1c-0.1-0.4-0.2-1.2-0.2-2.3
		C125.1,19.3,125.2,18.4,125.4,17.9L125.4,17.9z"/>
	<path fill="#0152A0" d="M116.1,12.9c-1-1-2.7-1.5-5.3-1.5c-1.7,0-3.1,0.2-4.1,0.6c-1,0.4-1.8,1.2-2.4,2.3H104v-2.5h-5.9v16.8h6.3
		v-7c0-1.2,0-2.2,0.2-2.8c0.1-0.6,0.3-1.1,0.6-1.5c0.6-0.8,1.7-1.2,3.2-1.2c1.6,0,2.6,0.3,3,1.1c0.2,0.4,0.3,1.1,0.3,2h5.9
		c0-0.6,0-0.9,0-1.1C117.6,15.7,117.1,13.9,116.1,12.9L116.1,12.9z"/>
	<path fill="#0152A0" d="M95.3,15.7c-0.2-1-0.7-1.8-1.4-2.4c-0.7-0.6-1.6-1.1-2.9-1.4c-1.2-0.3-2.9-0.4-5.1-0.4
		c-2.4,0-4.2,0.2-5.2,0.5c-1.1,0.4-1.9,1.1-2.4,2.1h-0.3v-2.2h-5.9v23.8h6.3v-9.1h0.3c0.6,1,1.4,1.7,2.4,2c1,0.3,2.5,0.5,4.7,0.5
		c3,0,5.1-0.2,6.5-0.7s2.2-1.3,2.8-2.5c0.2-0.6,0.4-1.4,0.6-2.2c0.1-0.8,0.1-1.9,0.1-3.3C95.7,18.2,95.6,16.6,95.3,15.7L95.3,15.7z
		 M89.4,20c0,1.1,0,1.9-0.2,2.4c-0.1,0.5-0.4,0.9-0.8,1.2c-0.7,0.4-2.2,0.7-4.5,0.7c-2.2,0-3.7-0.2-4.4-0.6
		c-0.4-0.2-0.7-0.6-0.9-1.1c-0.1-0.5-0.2-1.2-0.2-2.2c0-1.7,0.3-2.9,0.9-3.4c0.6-0.5,2.2-0.8,4.8-0.8c2,0,3.4,0.2,4.1,0.5
		c0.5,0.2,0.8,0.6,1,1C89.3,18.2,89.4,19,89.4,20L89.4,20z"/>
	<polygon fill="#737373" points="41.4,11.9 34.8,11.9 41,28.7 49.4,28.7 52.8,18.8 56.1,28.7 64.6,28.7 70.9,11.9 64.2,11.9 
		60.2,23.9 55.7,11.9 49.7,11.9 45.3,24.1 41.4,11.9 	"/>
	<path fill="#737373" d="M33.5,15.1c-0.2-0.7-0.6-1.4-1.1-2c-0.7-0.7-1.5-1.1-2.6-1.3c-1-0.2-2.9-0.3-5.6-0.3c-3.7,0-6.4,0.2-8,0.6
		c-1.6,0.3-2.7,1.1-3.5,2.2c-0.4,0.6-0.7,1.6-0.8,2.9h6.3c0.1-0.7,0.4-1.2,0.9-1.4c0.5-0.2,1.9-0.3,4.1-0.3c1.9,0,3.1,0.1,3.6,0.5
		c0.5,0.3,0.7,1.2,0.7,2.5v0.9h-0.3c-0.4-0.5-1-0.9-1.6-1C25,18.1,23.9,18,22.5,18c-3.3,0-5.6,0.1-6.9,0.3c-1.2,0.2-2.2,0.6-3,1.3
		c-0.9,0.8-1.4,2.3-1.4,4.2c0,1.7,0.4,3,1.2,3.8c0.5,0.5,1.3,0.9,2.2,1.1c0.9,0.2,2.2,0.3,3.9,0.3c2.1,0,3.6,0,4.6-0.1
		c0.9-0.1,1.7-0.2,2.2-0.4c1-0.4,1.7-1.2,2.2-2.1h0.3v2.3h6V18.6C33.8,17,33.7,15.9,33.5,15.1L33.5,15.1z M27.4,23.2
		c0,0.7-0.4,1.2-1.1,1.5c-0.8,0.2-2.3,0.4-4.5,0.4c-1.6,0-2.8-0.1-3.4-0.3c-0.6-0.2-0.9-0.7-0.9-1.4c0-0.6,0.3-1,0.9-1.3
		c0.5-0.2,1.8-0.4,3.9-0.4c2.4,0,3.8,0.1,4.1,0.2C27,22,27.4,22.5,27.4,23.2L27.4,23.2z"/>
	<polygon fill="#737373" points="8.8,5 2.5,5 2.5,28.7 8.8,28.7 8.8,5 	"/>
</g>
</svg>
